C:\Users\israe\Dropbox\PhDWork\Simulation\code\PassiveMoments\Data/emgFiles.mot
nRows=10
nColumns=40

name C:\Users\israe\Dropbox\PhDWork\Simulation\code\PassiveMoments\Data/emgFiles.mot
datacolumns 40
datarows 10
range 0.8600000000 0.9500000000
endheader
time	addbrev	addlong	addmagDist	addmagIsch	addmagMid	addmagProx	bflh	bfsh	edl	ehl	fdl	fhl	gaslat	gasmed	glmax1	glmax2	glmax3	glmed1	glmed2	glmed3	glmin1	glmin2	glmin3	grac	iliacus	perbrev	perlong	psoas	recfem	sart	semimem	semiten	soleus	tfl	tibant	tibpost	vasint	vaslat	vasmed
        0.8600000000	        0.0000000000	        0.0000000000	        0.0000000000	        0.0000000000	        0.0000000000	        0.0000000000	        0.0000000000	        0.0000000000	        0.0000000000	        0.0000000000	        0.0938246245	        0.0000000000	        0.3241100956	        0.3241100956	        0.0000000000	        0.0000000000	        0.0000000000	        0.2108622540	        0.2108622540	        0.2108622540	        0.2108622540	        0.2108622540	        0.2108622540	        0.0000000000	        0.0000000000	        0.0998505206	        0.0367869383	        0.0000000000	        0.0000000000	        0.0000000000	        0.0000000000	        0.0000000000	        0.3157762915	        0.0000000000	        0.0000000000	        0.0034909083	        0.0823784298	        0.0015732006	        0.0019389499	
        0.8700000000	        0.0000000000	        0.0000000000	        0.0000000000	        0.0000000000	        0.0000000000	        0.0000000000	        0.0000000000	        0.0000000000	        0.0000000000	        0.0000000000	        0.1021912261	        0.0000000000	        0.3449378044	        0.3449378044	        0.0000000000	        0.0000000000	        0.0000000000	        0.2102059850	        0.2102059850	        0.2102059850	        0.2102059850	        0.2102059850	        0.2102059850	        0.0000000000	        0.0000000000	        0.1051484972	        0.0509268697	        0.0000000000	        0.0000000000	        0.0000000000	        0.0000000000	        0.0000000000	        0.3153452969	        0.0000000000	        0.0000000000	        0.0000000000	        0.0599642146	        0.0000000000	        0.0000000000	
        0.8800000000	        0.0000000000	        0.0000000000	        0.0000000000	        0.0000000000	        0.0000000000	        0.0000000000	        0.0000000000	        0.0000000000	        0.0000000000	        0.0000000000	        0.1108629506	        0.0000000000	        0.3586893451	        0.3586893451	        0.0000000000	        0.0000000000	        0.0000000000	        0.2077360740	        0.2077360740	        0.2077360740	        0.2077360740	        0.2077360740	        0.2077360740	        0.0000000000	        0.0000000000	        0.1090137329	        0.0648140324	        0.0000000000	        0.0000000000	        0.0000000000	        0.0000000000	        0.0000000000	        0.3170718245	        0.0000000000	        0.0000000000	        0.0000000000	        0.0400206520	        0.0000000000	        0.0000000000	
        0.8900000000	        0.0000000000	        0.0000000000	        0.0000000000	        0.0000000000	        0.0000000000	        0.0000000000	        0.0000000000	        0.0000000000	        0.0000000000	        0.0000000000	        0.1204755372	        0.0000000000	        0.3690837048	        0.3690837048	        0.0000000000	        0.0000000000	        0.0000000000	        0.2033691404	        0.2033691404	        0.2033691404	        0.2033691404	        0.2033691404	        0.2033691404	        0.0000000000	        0.0000000000	        0.1124104442	        0.0774442196	        0.0000000000	        0.0000000000	        0.0000000000	        0.0000000000	        0.0000000000	        0.3213610674	        0.0000000000	        0.0000000000	        0.0000000000	        0.0224211860	        0.0000000000	        0.0000000000	
        0.9000000000	        0.0000000000	        0.0000000000	        0.0000000000	        0.0000000000	        0.0000000000	        0.0000000000	        0.0000000000	        0.0000000000	        0.0000000000	        0.0000000000	        0.1298932555	        0.0000000000	        0.3777047408	        0.3777047408	        0.0000000000	        0.0000000000	        0.0000000000	        0.1950105530	        0.1950105530	        0.1950105530	        0.1950105530	        0.1950105530	        0.1950105530	        0.0000000000	        0.0000000000	        0.1150703786	        0.0851117884	        0.0000000000	        0.0000000000	        0.0000000000	        0.0000000000	        0.0000000000	        0.3273479958	        0.0000000000	        0.0000000000	        0.0000000000	        0.0086962481	        0.0000000000	        0.0000000000	
        0.9100000000	        0.0000000000	        0.0000000000	        0.0000000000	        0.0000000000	        0.0000000000	        0.0000000000	        0.0000000000	        0.0000000000	        0.0000000000	        0.0000000000	        0.1420983278	        0.0000000000	        0.3870055355	        0.3870055355	        0.0000000000	        0.0000000000	        0.0000000000	        0.1794428640	        0.1794428640	        0.1794428640	        0.1794428640	        0.1794428640	        0.1794428640	        0.0000000000	        0.0000000000	        0.1136841299	        0.0911763986	        0.0000000000	        0.0000000000	        0.0000000000	        0.0000000000	        0.0000000000	        0.3347028047	        0.0000000000	        0.0000000000	        0.0000000000	        0.0004476638	        0.0000000000	        0.0000000000	
        0.9200000000	        0.0000000000	        0.0000000000	        0.0000000000	        0.0000000000	        0.0000000000	        0.0000000000	        0.0000000000	        0.0000000000	        0.0000000000	        0.0000000000	        0.1588073517	        0.0000000000	        0.3946958018	        0.3946958018	        0.0000000000	        0.0000000000	        0.0000000000	        0.1672802067	        0.1672802067	        0.1672802067	        0.1672802067	        0.1672802067	        0.1672802067	        0.0000000000	        0.0000000000	        0.1108640979	        0.0999058161	        0.0000000000	        0.0000000000	        0.0000000000	        0.0000000000	        0.0000000000	        0.3425352412	        0.0000000000	        0.0000000000	        0.0000000000	        0.0000000000	        0.0000000000	        0.0000000000	
        0.9300000000	        0.0000000000	        0.0000000000	        0.0000000000	        0.0000000000	        0.0000000000	        0.0000000000	        0.0000000000	        0.0000000000	        0.0000000000	        0.0000000000	        0.1774746491	        0.0039322426	        0.4018743989	        0.4018743989	        0.0000000000	        0.0000000000	        0.0000000000	        0.1557103508	        0.1557103508	        0.1557103508	        0.1557103508	        0.1557103508	        0.1557103508	        0.0000000000	        0.0000000000	        0.1099800979	        0.1103917811	        0.0000000000	        0.0000000000	        0.0000000000	        0.0000000000	        0.0000000000	        0.3512696536	        0.0000000000	        0.0000000000	        0.0000000000	        0.0000000000	        0.0000000000	        0.0000000000	
        0.9400000000	        0.0000000000	        0.0000000000	        0.0000000000	        0.0000000000	        0.0000000000	        0.0000000000	        0.0000000000	        0.0000000000	        0.0000000000	        0.0000000000	        0.1918740964	        0.0191887602	        0.4097723869	        0.4097723869	        0.0000000000	        0.0000000000	        0.0000000000	        0.1433958817	        0.1433958817	        0.1433958817	        0.1433958817	        0.1433958817	        0.1433958817	        0.0000000000	        0.0000000000	        0.1107545625	        0.1207400234	        0.0000000000	        0.0000000000	        0.0000000000	        0.0000000000	        0.0000000000	        0.3631404733	        0.0012917406	        0.0000000000	        0.0000000000	        0.0000000000	        0.0000000000	        0.0000000000	
        0.9500000000	        0.0000000000	        0.0000000000	        0.0000000000	        0.0000000000	        0.0000000000	        0.0000000000	        0.0000000000	        0.0000000000	        0.0000000000	        0.0000000000	        0.2005066894	        0.0437433884	        0.4191336252	        0.4191336252	        0.0000000000	        0.0000000000	        0.0000000000	        0.1304501196	        0.1304501196	        0.1304501196	        0.1304501196	        0.1304501196	        0.1304501196	        0.0000000000	        0.0000000000	        0.1153385268	        0.1298841662	        0.0000000000	        0.0000000000	        0.0000000000	        0.0000000000	        0.0000000000	        0.3804039733	        0.0090337451	        0.0000000000	        0.0000037687	        0.0000000000	        0.0000000000	        0.0000000000	
